<svg xmlns="http://www.w3.org/2000/svg" xmlns:xlink="http://www.w3.org/1999/xlink" width="1366" zoomAndPan="magnify" viewBox="0 0 1024.5 420" height="560" preserveAspectRatio="xMidYMid meet" version="1.2"><defs/><g id="a7c01ebe7e"><g style="fill:#d4a964;fill-opacity:1;"><g transform="translate(13.773439, 195.552218)"><path style="stroke:none" d="M 35.453125 -61.640625 L 35.453125 -15.09375 L 107.65625 -15.09375 L 107.65625 0 L 16.359375 0 L 16.359375 -134.5625 L 105.65625 -134.5625 L 105.65625 -119.46875 L 35.453125 -119.46875 L 35.453125 -76.921875 L 99.28125 -76.921875 L 99.28125 -61.640625 Z M 35.453125 -61.640625 "/></g></g><g style="fill:#d4a964;fill-opacity:1;"><g transform="translate(125.234607, 195.552218)"><path style="stroke:none" d="M 61.46875 -1.8125 L 99.109375 -134.5625 L 118.5625 -134.5625 L 78.015625 0 L 43.453125 0 L 3.09375 -134.5625 L 23.640625 -134.5625 L 61.09375 -1.8125 Z M 61.46875 -1.8125 "/></g></g><g style="fill:#d4a964;fill-opacity:1;"><g transform="translate(242.877982, 195.552218)"><path style="stroke:none" d="M 68.921875 1.8125 C 56.429688 1.8125 45.703125 -0.910156 36.734375 -6.359375 C 27.765625 -11.816406 20.914062 -19.695312 16.1875 -30 C 11.457031 -40.3125 9.09375 -52.738281 9.09375 -67.28125 C 9.09375 -81.832031 11.457031 -94.257812 16.1875 -104.5625 C 20.914062 -114.863281 27.765625 -122.742188 36.734375 -128.203125 C 45.703125 -133.660156 56.429688 -136.390625 68.921875 -136.390625 C 81.410156 -136.390625 92.109375 -133.660156 101.015625 -128.203125 C 109.921875 -122.742188 116.738281 -114.863281 121.46875 -104.5625 C 126.195312 -94.257812 128.5625 -81.832031 128.5625 -67.28125 C 128.5625 -52.738281 126.195312 -40.3125 121.46875 -30 C 116.738281 -19.695312 109.921875 -11.816406 101.015625 -6.359375 C 92.109375 -0.910156 81.410156 1.8125 68.921875 1.8125 Z M 68.921875 -13.8125 C 81.523438 -13.8125 91.34375 -18.507812 98.375 -27.90625 C 105.40625 -37.300781 108.921875 -50.425781 108.921875 -67.28125 C 108.921875 -84.132812 105.40625 -97.257812 98.375 -106.65625 C 91.34375 -116.050781 81.523438 -120.75 68.921875 -120.75 C 56.191406 -120.75 46.28125 -116.050781 39.1875 -106.65625 C 32.09375 -97.257812 28.546875 -84.132812 28.546875 -67.28125 C 28.546875 -50.425781 32.09375 -37.300781 39.1875 -27.90625 C 46.28125 -18.507812 56.191406 -13.8125 68.921875 -13.8125 Z M 68.921875 -13.8125 "/></g></g><g style="fill:#d4a964;fill-opacity:1;"><g transform="translate(376.704179, 195.552218)"><path style="stroke:none" d="M 35.453125 -134.5625 L 35.453125 -15.640625 L 96.375 -15.640625 L 96.375 0 L 16.359375 0 L 16.359375 -134.5625 Z M 35.453125 -134.5625 "/></g></g><g style="fill:#d4a964;fill-opacity:1;"><g transform="translate(472.709839, 195.552218)"><path style="stroke:none" d="M 65.46875 1.8125 C 49.707031 1.8125 37.367188 -2.488281 28.453125 -11.09375 C 19.546875 -19.695312 15.09375 -31.578125 15.09375 -46.734375 L 15.09375 -134.5625 L 34 -134.5625 L 34 -45.640625 C 34 -35.703125 36.816406 -27.910156 42.453125 -22.265625 C 48.097656 -16.628906 55.953125 -13.8125 66.015625 -13.8125 C 76.078125 -13.8125 83.925781 -16.628906 89.5625 -22.265625 C 95.195312 -27.910156 98.015625 -35.703125 98.015625 -45.640625 L 98.015625 -134.5625 L 116.015625 -134.5625 L 116.015625 -46.734375 C 116.015625 -31.578125 111.554688 -19.695312 102.640625 -11.09375 C 93.734375 -2.488281 81.34375 1.8125 65.46875 1.8125 Z M 65.46875 1.8125 "/></g></g><g style="fill:#d4a964;fill-opacity:1;"><g transform="translate(599.990192, 195.552218)"><path style="stroke:none" d="M 3.265625 -134.5625 L 103.828125 -134.5625 L 103.828125 -119.46875 L 63.09375 -119.46875 L 63.09375 0 L 44 0 L 44 -119.46875 L 3.265625 -119.46875 Z M 3.265625 -134.5625 "/></g></g><g style="fill:#d4a964;fill-opacity:1;"><g transform="translate(703.26899, 195.552218)"><path style="stroke:none" d="M 35.453125 0 L 16.359375 0 L 16.359375 -134.5625 L 35.453125 -134.5625 Z M 35.453125 0 "/></g></g><g style="fill:#d4a964;fill-opacity:1;"><g transform="translate(751.27162, 195.552218)"><path style="stroke:none" d="M 68.921875 1.8125 C 56.429688 1.8125 45.703125 -0.910156 36.734375 -6.359375 C 27.765625 -11.816406 20.914062 -19.695312 16.1875 -30 C 11.457031 -40.3125 9.09375 -52.738281 9.09375 -67.28125 C 9.09375 -81.832031 11.457031 -94.257812 16.1875 -104.5625 C 20.914062 -114.863281 27.765625 -122.742188 36.734375 -128.203125 C 45.703125 -133.660156 56.429688 -136.390625 68.921875 -136.390625 C 81.410156 -136.390625 92.109375 -133.660156 101.015625 -128.203125 C 109.921875 -122.742188 116.738281 -114.863281 121.46875 -104.5625 C 126.195312 -94.257812 128.5625 -81.832031 128.5625 -67.28125 C 128.5625 -52.738281 126.195312 -40.3125 121.46875 -30 C 116.738281 -19.695312 109.921875 -11.816406 101.015625 -6.359375 C 92.109375 -0.910156 81.410156 1.8125 68.921875 1.8125 Z M 68.921875 -13.8125 C 81.523438 -13.8125 91.34375 -18.507812 98.375 -27.90625 C 105.40625 -37.300781 108.921875 -50.425781 108.921875 -67.28125 C 108.921875 -84.132812 105.40625 -97.257812 98.375 -106.65625 C 91.34375 -116.050781 81.523438 -120.75 68.921875 -120.75 C 56.191406 -120.75 46.28125 -116.050781 39.1875 -106.65625 C 32.09375 -97.257812 28.546875 -84.132812 28.546875 -67.28125 C 28.546875 -50.425781 32.09375 -37.300781 39.1875 -27.90625 C 46.28125 -18.507812 56.191406 -13.8125 68.921875 -13.8125 Z M 68.921875 -13.8125 "/></g></g><g style="fill:#d4a964;fill-opacity:1;"><g transform="translate(885.097838, 195.552218)"><path style="stroke:none" d="M 101.28125 -1.8125 L 100.734375 -134.5625 L 118.75 -134.5625 L 118.75 0 L 86.1875 0 L 34.375 -132.75 L 34 -132.75 L 34.734375 0 L 16.359375 0 L 16.359375 -134.5625 L 49.09375 -134.5625 L 100.921875 -1.8125 Z M 101.28125 -1.8125 "/></g></g><g style="fill:#d4a964;fill-opacity:1;"><g transform="translate(13.73238, 358.474355)"><path style="stroke:none" d="M 60.546875 1.8125 C 44.910156 1.8125 32.394531 -2.425781 23 -10.90625 C 13.601562 -19.394531 8.363281 -31.273438 7.28125 -46.546875 L 26.1875 -46.546875 C 26.914062 -36.242188 30.335938 -28.210938 36.453125 -22.453125 C 42.578125 -16.691406 50.734375 -13.8125 60.921875 -13.8125 C 71.460938 -13.8125 79.671875 -15.90625 85.546875 -20.09375 C 91.429688 -24.28125 94.375 -30.128906 94.375 -37.640625 C 94.375 -43.828125 92.613281 -48.460938 89.09375 -51.546875 C 85.582031 -54.640625 81.035156 -56.882812 75.453125 -58.28125 C 69.878906 -59.675781 63.941406 -60.859375 57.640625 -61.828125 C 52.191406 -62.671875 46.707031 -63.695312 41.1875 -64.90625 C 35.664062 -66.125 30.632812 -67.914062 26.09375 -70.28125 C 21.550781 -72.644531 17.914062 -76.007812 15.1875 -80.375 C 12.457031 -84.738281 11.09375 -90.4375 11.09375 -97.46875 C 11.09375 -110.070312 15.457031 -119.707031 24.1875 -126.375 C 32.914062 -133.050781 45.035156 -136.390625 60.546875 -136.390625 C 75.097656 -136.390625 86.738281 -132.296875 95.46875 -124.109375 C 104.195312 -115.921875 109.046875 -104.613281 110.015625 -90.1875 L 91.28125 -90.1875 C 90.800781 -99.882812 87.769531 -107.398438 82.1875 -112.734375 C 76.613281 -118.078125 69.160156 -120.75 59.828125 -120.75 C 50.609375 -120.75 43.394531 -118.835938 38.1875 -115.015625 C 32.976562 -111.191406 30.375 -105.765625 30.375 -98.734375 C 30.375 -93.523438 31.976562 -89.554688 35.1875 -86.828125 C 38.394531 -84.097656 42.632812 -82.128906 47.90625 -80.921875 C 53.1875 -79.710938 58.796875 -78.617188 64.734375 -77.640625 C 70.429688 -76.796875 76.1875 -75.707031 82 -74.375 C 87.820312 -73.039062 93.128906 -71.097656 97.921875 -68.546875 C 102.710938 -66.003906 106.5625 -62.398438 109.46875 -57.734375 C 112.375 -53.066406 113.828125 -46.914062 113.828125 -39.28125 C 113.828125 -26.425781 109.128906 -16.363281 99.734375 -9.09375 C 90.335938 -1.820312 77.273438 1.8125 60.546875 1.8125 Z M 60.546875 1.8125 "/></g></g><g style="fill:#d4a964;fill-opacity:1;"><g transform="translate(131.557574, 358.474355)"><path style="stroke:none" d="M 3.265625 -134.5625 L 103.828125 -134.5625 L 103.828125 -119.46875 L 63.09375 -119.46875 L 63.09375 0 L 44 0 L 44 -119.46875 L 3.265625 -119.46875 Z M 3.265625 -134.5625 "/></g></g><g style="fill:#d4a964;fill-opacity:1;"><g transform="translate(234.836391, 358.474355)"><path style="stroke:none" d="M 124.75 0 L 104.203125 0 L 93.65625 -33.828125 L 32 -33.828125 L 21.453125 0 L 2 0 L 46.734375 -134.5625 L 80.375 -134.5625 Z M 62.734375 -132.75 L 36.734375 -49.09375 L 88.921875 -49.09375 L 63.09375 -132.75 Z M 62.734375 -132.75 "/></g></g><g style="fill:#d4a964;fill-opacity:1;"><g transform="translate(357.752802, 358.474355)"><path style="stroke:none" d="M 70.5625 -75.828125 L 73.09375 -75.828125 C 86.914062 -75.828125 97.675781 -72.550781 105.375 -66 C 113.070312 -59.457031 116.921875 -50.367188 116.921875 -38.734375 C 116.921875 -26.609375 112.890625 -17.117188 104.828125 -10.265625 C 96.765625 -3.421875 85.519531 0 71.09375 0 L 16.359375 0 L 16.359375 -134.5625 L 69.828125 -134.5625 C 81.460938 -134.5625 90.523438 -131.894531 97.015625 -126.5625 C 103.503906 -121.226562 106.75 -113.710938 106.75 -104.015625 C 106.75 -95.285156 103.566406 -88.460938 97.203125 -83.546875 C 90.835938 -78.640625 81.957031 -76.1875 70.5625 -76.1875 Z M 87.109375 -97.65625 C 87.109375 -104.4375 85.046875 -109.765625 80.921875 -113.640625 C 76.796875 -117.523438 71.035156 -119.46875 63.640625 -119.46875 L 35.453125 -119.46875 L 35.453125 -76.1875 L 63.640625 -76.1875 C 71.035156 -76.1875 76.796875 -78.066406 80.921875 -81.828125 C 85.046875 -85.585938 87.109375 -90.863281 87.109375 -97.65625 Z M 35.453125 -15.09375 L 72.015625 -15.09375 C 79.890625 -15.09375 86.066406 -17.179688 90.546875 -21.359375 C 95.035156 -25.546875 97.28125 -31.335938 97.28125 -38.734375 C 97.28125 -46.003906 95.035156 -51.703125 90.546875 -55.828125 C 86.066406 -59.953125 79.890625 -62.015625 72.015625 -62.015625 L 35.453125 -62.015625 Z M 35.453125 -15.09375 "/></g></g><g style="fill:#d4a964;fill-opacity:1;"><g transform="translate(478.48729, 358.474355)"><path style="stroke:none" d="M 35.453125 -134.5625 L 35.453125 -15.640625 L 96.375 -15.640625 L 96.375 0 L 16.359375 0 L 16.359375 -134.5625 Z M 35.453125 -134.5625 "/></g></g><g style="fill:#d4a964;fill-opacity:1;"><g transform="translate(574.49295, 358.474355)"><path style="stroke:none" d="M 35.453125 -61.640625 L 35.453125 -15.09375 L 107.65625 -15.09375 L 107.65625 0 L 16.359375 0 L 16.359375 -134.5625 L 105.65625 -134.5625 L 105.65625 -119.46875 L 35.453125 -119.46875 L 35.453125 -76.921875 L 99.28125 -76.921875 L 99.28125 -61.640625 Z M 35.453125 -61.640625 "/></g></g><g style="fill:#d4a964;fill-opacity:1;"><g transform="translate(685.954118, 358.474355)"><path style="stroke:none" d="M 60.546875 1.8125 C 44.910156 1.8125 32.394531 -2.425781 23 -10.90625 C 13.601562 -19.394531 8.363281 -31.273438 7.28125 -46.546875 L 26.1875 -46.546875 C 26.914062 -36.242188 30.335938 -28.210938 36.453125 -22.453125 C 42.578125 -16.691406 50.734375 -13.8125 60.921875 -13.8125 C 71.460938 -13.8125 79.671875 -15.90625 85.546875 -20.09375 C 91.429688 -24.28125 94.375 -30.128906 94.375 -37.640625 C 94.375 -43.828125 92.613281 -48.460938 89.09375 -51.546875 C 85.582031 -54.640625 81.035156 -56.882812 75.453125 -58.28125 C 69.878906 -59.675781 63.941406 -60.859375 57.640625 -61.828125 C 52.191406 -62.671875 46.707031 -63.695312 41.1875 -64.90625 C 35.664062 -66.125 30.632812 -67.914062 26.09375 -70.28125 C 21.550781 -72.644531 17.914062 -76.007812 15.1875 -80.375 C 12.457031 -84.738281 11.09375 -90.4375 11.09375 -97.46875 C 11.09375 -110.070312 15.457031 -119.707031 24.1875 -126.375 C 32.914062 -133.050781 45.035156 -136.390625 60.546875 -136.390625 C 75.097656 -136.390625 86.738281 -132.296875 95.46875 -124.109375 C 104.195312 -115.921875 109.046875 -104.613281 110.015625 -90.1875 L 91.28125 -90.1875 C 90.800781 -99.882812 87.769531 -107.398438 82.1875 -112.734375 C 76.613281 -118.078125 69.160156 -120.75 59.828125 -120.75 C 50.609375 -120.75 43.394531 -118.835938 38.1875 -115.015625 C 32.976562 -111.191406 30.375 -105.765625 30.375 -98.734375 C 30.375 -93.523438 31.976562 -89.554688 35.1875 -86.828125 C 38.394531 -84.097656 42.632812 -82.128906 47.90625 -80.921875 C 53.1875 -79.710938 58.796875 -78.617188 64.734375 -77.640625 C 70.429688 -76.796875 76.1875 -75.707031 82 -74.375 C 87.820312 -73.039062 93.128906 -71.097656 97.921875 -68.546875 C 102.710938 -66.003906 106.5625 -62.398438 109.46875 -57.734375 C 112.375 -53.066406 113.828125 -46.914062 113.828125 -39.28125 C 113.828125 -26.425781 109.128906 -16.363281 99.734375 -9.09375 C 90.335938 -1.820312 77.273438 1.8125 60.546875 1.8125 Z M 60.546875 1.8125 "/></g></g></g></svg>